<svg xmlns="http://www.w3.org/2000/svg" width="296.938" height="60.573" viewBox="0 0 296.938 60.573">
  <g id="bg" transform="translate(-79.818 -48)">
    <g id="Group_25" data-name="Group 25">
      <g id="Group_18" data-name="Group 18">
        <path id="Path_47" data-name="Path 47" d="M141.795,80.285c5.9,0,9.849,4.052,10.022,10.185h8.077V74.118H151.85v3.619a15.594,15.594,0,0,0-10.859-4.558c-10.321,0-17.234,6.929-17.413,17.291h8.06C131.815,84.337,135.831,80.285,141.795,80.285Z" fill="#111"/>
        <path id="Path_48" data-name="Path 48" d="M166.7,90.47h-9.422c0,.139.057,3.531,0,5.587H166.7Z" fill="#fc1923"/>
        <path id="Path_49" data-name="Path 49" d="M152.416,96.057a9.406,9.406,0,0,1-8.93,5.41c-6.1,0-10.19-4.223-10.19-10.591,0-.142.03-.267.034-.406h-8.061c0,.137-.016.267-.016.406,0,10.591,6.972,17.7,17.429,17.7a15.589,15.589,0,0,0,10.859-4.559v3.62h8.044V96.057Z" fill="#111"/>
      </g>
      <g id="Group_19" data-name="Group 19">
        <path id="Path_50" data-name="Path 50" d="M245.8,80.82h8.446v-6.7H245.8V61.649h-8.043V74.118h-5.363v6.7h5.363v9.65H245.8Z" fill="#111"/>
        <path id="Path_51" data-name="Path 51" d="M250.191,90.47h-8.044v5.587h8.044Z" fill="#fc1923"/>
        <path id="Path_52" data-name="Path 52" d="M248.749,101.869a2.746,2.746,0,0,1-2.95-2.815v-3h-8.043v3c0,5.7,4.424,9.519,11.126,9.519a15.949,15.949,0,0,0,5.7-.939v-5.765Z" fill="#111"/>
      </g>
      <g id="Group_20" data-name="Group 20">
        <path id="Path_53" data-name="Path 53" d="M270.27,108.573h8.044v-4.129H270.27Z" fill="#fc1923"/>
        <path id="Path_54" data-name="Path 54" d="M282.4,74.385a10.092,10.092,0,0,0-8.111,4.626V75.056h-8.044v29.388h8.044V88.73c0-4.491,3.552-7.507,8.915-7.507h2.748V75.056A9.845,9.845,0,0,0,282.4,74.385Z" fill="#111"/>
      </g>
      <path id="Path_55" data-name="Path 55" d="M342.141,93.271v15.148h8.044V93.271Z" fill="#111"/>
      <path id="Path_56" data-name="Path 56" d="M366.54,93.271v15.3h8.044v-15.3Z" fill="#111"/>
      <path id="Path_57" data-name="Path 57" d="M376.756,87.725c0-8.178-6.1-13.607-15.281-13.607a14.03,14.03,0,0,0-9.117,3.418v-2.48h-8.044V93.271h8.044V88.664c0-4.492,3.284-7.441,8.178-7.441s8.177,2.949,8.177,7.441v4.607h8.043Z" fill="#111"/>
      <g id="Group_21" data-name="Group 21">
        <path id="Path_58" data-name="Path 58" d="M311.165,80.285c5.9,0,9.848,4.052,10.022,10.185h8.076V74.118H321.22v3.619a15.6,15.6,0,0,0-10.859-4.558c-10.321,0-17.235,6.929-17.413,17.291h8.06C301.185,84.337,305.2,80.285,311.165,80.285Z" fill="#111"/>
        <path id="Path_59" data-name="Path 59" d="M322.859,94.195a9.414,9.414,0,0,1-9.6,7.272c-6.1,0-10.19-4.223-10.19-10.591,0-.142.029-.267.033-.406h-8.06c0,.137-.017.267-.017.406,0,10.591,6.973,17.7,17.43,17.7a15.592,15.592,0,0,0,10.859-4.559v3.62h8.044V94.195Z" fill="#111"/>
        <path id="Path_60" data-name="Path 60" d="M333.513,90.47h-8.5c0,.139,0,2.695,0,3.725h8.5Z" fill="#fc1923"/>
        <path id="Path_61" data-name="Path 61" d="M321.337,65.536l-5.655-7.291h-6.434L301.137,68.7h8.915l2.413-3.151h0C316.018,65.556,318.282,65.54,321.337,65.536Z" fill="#111"/>
        <path id="Path_62" data-name="Path 62" d="M322.792,65.536c-3.055,0-5.32.02-8.872.016l2.413,3.151h8.915Z" fill="#fc1923"/>
        <path id="Path_63" data-name="Path 63" d="M312.862,50.22l9.6-2.22,7.351,10.066-7.642,1.767Z" fill="#111"/>
      </g>
      <g id="Group_22" data-name="Group 22">
        <path id="Path_64" data-name="Path 64" d="M174.33,108.573h8.043V94.243H174.33Z" fill="#111"/>
        <path id="Path_65" data-name="Path 65" d="M224.175,85.177c0-6.636-5.364-11.061-13.342-11.061a14.782,14.782,0,0,0-10.055,4.023,13.073,13.073,0,0,0-8.916-4.023,10.289,10.289,0,0,0-8.178,3.957V75.055H175.64V94.243h8.044v-8.26c0-2.884,2.414-4.761,6.1-4.761s6.1,1.877,6.1,4.761v8.26h8.043v-8.26c0-2.884,2.414-4.761,6.1-4.761s6.1,1.877,6.1,4.761v8.26h8.046Z" fill="#111"/>
        <path id="Path_66" data-name="Path 66" d="M194.574,108.573h8.044V94.243h-8.044Z" fill="#111"/>
        <path id="Path_67" data-name="Path 67" d="M214.818,94.243v14.33h8.046V94.243Z" fill="#111"/>
      </g>
      <g id="Group_24" data-name="Group 24">
        <g id="Group_23" data-name="Group 23">
          <path id="Path_68" data-name="Path 68" d="M88.116,87.39a9.444,9.444,0,0,1,9.623-7.106c4.827,0,8.714,2.815,9.787,7.106h7.709c-1.474-8.513-8.446-14.212-17.5-14.212-9.677,0-16.45,5.579-17.876,14.212Z" fill="#111"/>
          <path id="Path_69" data-name="Path 69" d="M107.593,94.025c-1.006,4.493-4.961,7.442-9.854,7.442a9.458,9.458,0,0,1-9.711-7.442h-8.21c1.305,8.821,8.12,14.548,17.921,14.548,9.117,0,16.156-5.832,17.563-14.548Z" fill="#111"/>
        </g>
        <rect id="Rectangle_8" data-name="Rectangle 8" width="8.227" height="6.636" transform="translate(83.913 87.39)" fill="#fc1923"/>
      </g>
    </g>
  </g>
</svg>
